# xmcd
#
# Track frame offsets:
#	150
#	18080
#	41325
#	57865
#	80315
#
# Disc length: 1303 seconds
#
# Revision: 2
# Processed by: cddbd v1.5.2PL0 Copyright (c) Steve Scherf et al.
# Submitted via: audiograbber 1.83.01
#
DISCID=2b051505
DTITLE=The Trembling Highburys - Only Night Time
DYEAR=2001
DGENRE=Pop
TTITLE0=Trembling Highburys - Only Night Time
TTITLE1=Trembling Highburys - I Didn't Start It Turning
TTITLE2=Trembling Highburys - High Water
TTITLE3=Trembling Highburys - I Will Take You Home
TTITLE4=Trembling Highburys - Only Night Time (Special Salon Mix)
EXTD=
EXTT0=
EXTT1=
EXTT2=
EXTT3=
EXTT4=
PLAYORDER=
